<svg width="55" height="55" viewBox="0 0 55 55" fill="none" xmlns="http://www.w3.org/2000/svg">
<path d="M26.0778 0.587933C15.1403 1.06301 4.71184 0.54195 1.18658 10.8876C-0.269586 15.1606 0.205405 20.6072 0.544794 28.4208C0.842608 35.2773 0.902616 41.731 2.70428 45.8293C7.10453 55.8368 17.5328 54.4068 28.389 53.9352C38.8626 53.4803 49.7089 54.1008 53.2771 43.6326C54.7344 39.3174 54.26 33.9522 53.919 26.1025C53.4664 15.6823 53.7495 8.93023 48.4726 4.09934C43.1295 -0.795025 36.2322 0.146877 26.0658 0.588457L26.0778 0.587933ZM23.8949 5.49859C46.7082 4.4715 49.5019 1.81106 49.4286 37.0872C49.4001 49.5638 39.8522 48.6094 28.1887 49.116C6.92215 50.0397 6.28425 49.4583 5.36087 28.1996C4.42677 6.694 6.09899 6.28362 23.8946 5.49257L23.8949 5.49859ZM40.7269 9.20336C38.9587 9.28016 37.5871 10.7751 37.6639 12.5419C37.7406 14.3087 39.2367 15.6792 41.0049 15.6024C42.7731 15.5256 44.1447 14.0306 44.0679 12.2638C43.9912 10.497 42.4951 9.12656 40.7269 9.20336ZM26.6414 13.5635C19.0716 13.8923 13.2021 20.2929 13.5306 27.8568C13.8592 35.4206 20.2615 41.2852 27.8313 40.9564C35.4011 40.6276 41.2677 34.2301 40.9392 26.6663C40.6106 19.1024 34.2112 13.2347 26.6414 13.5635ZM26.8502 18.3703C38.6131 17.8594 39.4005 35.641 27.6226 36.1526C15.8627 36.6634 15.0723 18.8819 26.8502 18.3703Z" fill="white"/>
</svg>
