<svg width="29" height="29" viewBox="0 0 29 29" fill="none" xmlns="http://www.w3.org/2000/svg">
<path d="M14.5004 0.0139775C8.56118 0.0139775 2.92134 -0.513931 0.76714 5.01031C-0.122673 7.29192 0.00654589 10.2551 0.00654589 14.498C0.00654589 18.2211 -0.112859 21.7203 0.76714 23.984C2.91643 29.5115 8.60207 28.9819 14.4971 28.9819C20.1844 28.9819 26.0483 29.5736 28.2287 23.984C29.1201 21.6795 28.9893 18.7605 28.9893 14.498C28.9893 8.83969 29.3017 5.18683 26.5554 2.44432C23.7747 -0.334148 20.0143 0.0139775 14.4938 0.0139775H14.5004ZM13.2016 2.6241C25.5903 2.60449 27.1671 1.22833 26.2969 20.3458C25.9878 27.1073 20.8354 26.3653 14.502 26.3653C2.95405 26.3653 2.62201 26.0351 2.62201 14.4914C2.62201 2.81369 3.53799 2.63064 13.2016 2.62083V2.6241ZM22.2372 5.02829C21.277 5.02829 20.4984 5.80626 20.4984 6.76565C20.4984 7.72504 21.277 8.50301 22.2372 8.50301C23.1973 8.50301 23.9759 7.72504 23.9759 6.76565C23.9759 5.80626 23.1973 5.02829 22.2372 5.02829ZM14.5004 7.05984C10.3899 7.05984 7.05799 10.3907 7.05799 14.498C7.05799 18.6052 10.3899 21.9344 14.5004 21.9344C18.6108 21.9344 21.9411 18.6052 21.9411 14.498C21.9411 10.3907 18.6108 7.05984 14.5004 7.05984ZM14.5004 9.66996C20.8877 9.66996 20.8959 19.326 14.5004 19.326C8.11464 19.326 8.10483 9.66996 14.5004 9.66996Z" fill="white"/>
</svg>
